<?xml version="1.0" encoding="UTF-8"?>
<svg id="uuid-fa72f921-82f0-4c30-a69e-479dfe848ad6" data-name="Laag 1" xmlns="http://www.w3.org/2000/svg" width="508.8" height="441.89" viewBox="0 0 508.8 441.89">
  <defs>
    <style>
      .uuid-96909f92-fa0f-4849-98ce-98e89047280c {
        fill: #454545;
      }

      .uuid-3e57237f-68c2-40a0-a8cd-dcffa3837a9d {
        fill: #4eca5c;
      }

      .uuid-593471ea-ca05-46c5-9a09-60322cb89319 {
        fill: #bfbfbf;
      }
    </style>
  </defs>
  <path class="uuid-593471ea-ca05-46c5-9a09-60322cb89319" d="M346.42,86.29c-66.31-39.52-150.55-37.02-215.64,3.54L63.42,25.23c-9.75-7.64-21.24-10.13-33.33-6.43C17.52,22.66,1.94,38.97.12,51.77c-.36,2.55.26,5.66,0,8.3,1.82,6.83,4.02,12.92,9.04,18.27l66.66,64.44c-16,25.22-27.75,52.57-31.63,82.17-13.47,102.73,58.89,196.73,164.27,214.21l22.58,2.73h21.54c194.04-10.88,259.48-256.89,93.84-355.61Z"/>
  <circle class="uuid-96909f92-fa0f-4849-98ce-98e89047280c" cx="244.06" cy="250.24" r="153.11"/>
  <path class="uuid-3e57237f-68c2-40a0-a8cd-dcffa3837a9d" d="M504.19,0c4.08-.02,5.83,3.93,3.69,7.01-88.93,90.3-179.73,182.06-251.52,285.65-5.07,7.32-10.96,19.02-16.32,25.26-4.33,5.04-6.39,2.88-9.78-1.39-14.32-18.11-26.31-45.35-39.66-65.39-15.42-23.14-34.11-46.63-59.74-60.17-2.78-1.47-14.77-6.07-15.55-7.55-3.81-7.34,11.59-8.23,16.18-8.5,45.25-2.6,71.19,37.99,97.24,66.17.92.99,5.84,6.27,6.48,6.13,16.66-21.88,34.62-42.85,53.47-63.05,55.59-59.55,123.57-122.19,191.35-169C483.56,12.75,501.66.01,504.19,0Z"/>
</svg>