<?xml version="1.0" encoding="UTF-8"?>
<svg id="uuid-d6257178-0561-4d53-aa1b-ac42471f2517" data-name="Laag 1" xmlns="http://www.w3.org/2000/svg" width="400.71" height="87.1" viewBox="0 0 400.71 87.1">
  <defs>
    <style>
      .uuid-bad7ef0a-9db1-454a-b1f0-b499bdb6c2fe {
        fill: #454545;
      }

      .uuid-771e82b1-40f6-440f-bdf3-c1d968b151e3 {
        fill: #4eca5c;
      }

      .uuid-ca585233-c0dd-4f36-bede-bca900890445 {
        fill: #bfbfbf;
      }
    </style>
  </defs>
  <g>
    <path class="uuid-771e82b1-40f6-440f-bdf3-c1d968b151e3" d="M5.5,64.11V14.07c0-1.67,1.59-2.5,4.78-2.5h2.79c3.19,0,4.78.83,4.78,2.5v20.95l.32.08,13.86-22.05c.58-.99,2.18-1.49,4.78-1.49h3.74c2.97,0,4.46.39,4.46,1.17,0,.47-.21,1.02-.64,1.64l-15.37,23.14,17.44,26.27c.42.62.64,1.17.64,1.64,0,.78-1.49,1.17-4.46,1.17h-4.62c-2.66,0-4.27-.5-4.86-1.49l-14.97-23.77-.32.08v22.67c0,1.67-1.59,2.5-4.78,2.5h-2.79c-3.19,0-4.78-.83-4.78-2.5Z"/>
    <path class="uuid-771e82b1-40f6-440f-bdf3-c1d968b151e3" d="M111.51,61.65c-3.29-3.62-4.94-8.85-4.94-15.68s1.65-12.04,4.94-15.64c3.29-3.6,8.1-5.4,14.42-5.4s11.11,1.8,14.38,5.4,4.9,8.81,4.9,15.64-1.63,12.05-4.9,15.68c-3.27,3.62-8.06,5.43-14.38,5.43s-11.12-1.81-14.42-5.43ZM131.46,54.93c1.19-2.01,1.79-4.99,1.79-8.95s-.6-6.93-1.79-8.91c-1.19-1.98-3.04-2.97-5.54-2.97s-4.35.99-5.58,2.97c-1.22,1.98-1.83,4.95-1.83,8.91,0,7.98,2.47,11.96,7.41,11.96,2.5,0,4.34-1,5.54-3.01Z"/>
    <path class="uuid-771e82b1-40f6-440f-bdf3-c1d968b151e3" d="M189.64,65.44c0,.78-1.51,1.17-4.54,1.17h-3.35c-2.6,0-4.2-.5-4.78-1.49l-11.07-17.98-.32.08v16.89c0,1.67-1.59,2.5-4.78,2.5h-2.23c-3.19,0-4.78-.83-4.78-2.5V10.01c0-1.67,1.59-2.5,4.78-2.5h2.23c3.19,0,4.78.83,4.78,2.5v30.96l.32.08,9.64-14.15c.42-.63,1.01-1.03,1.75-1.21.74-.18,1.78-.27,3.11-.27h2.95c2.97,0,4.46.39,4.46,1.17,0,.42-.24.94-.72,1.56l-11.07,15.48,12.98,20.17c.42.62.64,1.17.64,1.64Z"/>
    <path class="uuid-771e82b1-40f6-440f-bdf3-c1d968b151e3" d="M231.14,65.44c0,.78-1.51,1.17-4.54,1.17h-3.34c-2.6,0-4.2-.5-4.78-1.49l-11.07-17.98-.32.08v16.89c0,1.67-1.59,2.5-4.78,2.5h-2.23c-3.19,0-4.78-.83-4.78-2.5V10.01c0-1.67,1.59-2.5,4.78-2.5h2.23c3.19,0,4.78.83,4.78,2.5v30.96l.32.08,9.64-14.15c.42-.63,1.01-1.03,1.75-1.21.74-.18,1.78-.27,3.11-.27h2.95c2.97,0,4.46.39,4.46,1.17,0,.42-.24.94-.72,1.56l-11.07,15.48,12.98,20.17c.42.62.64,1.17.64,1.64Z"/>
    <path class="uuid-771e82b1-40f6-440f-bdf3-c1d968b151e3" d="M240.02,61.57c-3.42-3.67-5.14-8.77-5.14-15.29,0-7.35,1.71-12.74,5.14-16.19,3.42-3.44,8.16-5.16,14.22-5.16s10.23,1.88,13.02,5.63,4.18,8.6,4.18,14.54c0,.63-.54,1.55-1.63,2.78-1.09,1.23-1.9,1.84-2.43,1.84h-20.31c.27,2.97,1.17,5.08,2.71,6.33s3.69,1.88,6.45,1.88c1.49,0,2.84-.17,4.06-.51,1.22-.34,2.5-.77,3.82-1.29.85-.42,1.43-.63,1.75-.63.53,0,1.13.38,1.79,1.13.66.76,1.22,1.62,1.67,2.58.45.96.68,1.71.68,2.23,0,1.2-.82,2.23-2.47,3.09-1.65.86-3.61,1.5-5.89,1.92-2.28.42-4.28.63-5.97.63-7.01,0-12.23-1.84-15.65-5.51ZM259.97,41.99c0-2.4-.48-4.31-1.43-5.75-.96-1.43-2.39-2.15-4.3-2.15-3.93,0-6.32,2.63-7.17,7.9h12.9Z"/>
    <path class="uuid-771e82b1-40f6-440f-bdf3-c1d968b151e3" d="M282.03,64c-1.91-2.06-2.87-5.25-2.87-9.58v-26.51c0-1.67,1.59-2.5,4.78-2.5h2.23c3.19,0,4.78.83,4.78,2.5v24.79c0,1.62.37,2.83,1.12,3.64.74.81,1.96,1.21,3.66,1.21,1.43,0,2.69-.46,3.78-1.37,1.09-.91,1.95-1.97,2.59-3.17v-25.1c0-1.67,1.59-2.5,4.78-2.5h2.23c3.19,0,4.78.83,4.78,2.5v24.79c0,2.4.07,4.22.2,5.47s.31,2.63.52,4.14c.16.68.24,1.25.24,1.72,0,.83-1.08,1.46-3.23,1.88s-4.05.62-5.69.62c-.96,0-1.62-.38-1.99-1.13-.37-.75-.65-1.58-.84-2.46-.19-.89-.31-1.49-.36-1.8-1.27,1.67-2.96,3.08-5.06,4.22-2.1,1.15-4.37,1.72-6.81,1.72-3.98,0-6.93-1.03-8.84-3.09Z"/>
    <path class="uuid-771e82b1-40f6-440f-bdf3-c1d968b151e3" d="M321.78,64.31c-.53-1.43-.8-2.7-.8-3.79,0-.52.08-.89.24-1.09l18.24-24.71h-14.81c-.85,0-1.46-.31-1.83-.94-.37-.63-.56-1.62-.56-2.97v-1.33c0-1.35.19-2.35.56-2.97.37-.63.98-.94,1.83-.94h28.2c.42,0,.92.73,1.47,2.19.56,1.46.84,2.74.84,3.83,0,.52-.08.91-.24,1.17l-18.16,24.55h16.33c.85,0,1.46.31,1.83.94.37.62.56,1.62.56,2.97v1.33c0,1.36-.19,2.35-.56,2.97-.37.63-.98.94-1.83.94h-29.79c-.48,0-.98-.72-1.51-2.15Z"/>
    <path class="uuid-771e82b1-40f6-440f-bdf3-c1d968b151e3" d="M366.26,61.57c-3.42-3.67-5.14-8.77-5.14-15.29,0-7.35,1.71-12.74,5.14-16.19,3.42-3.44,8.16-5.16,14.22-5.16s10.23,1.88,13.02,5.63,4.18,8.6,4.18,14.54c0,.63-.54,1.55-1.63,2.78-1.09,1.23-1.9,1.84-2.43,1.84h-20.31c.27,2.97,1.17,5.08,2.71,6.33s3.69,1.88,6.45,1.88c1.49,0,2.84-.17,4.06-.51,1.22-.34,2.5-.77,3.82-1.29.85-.42,1.43-.63,1.75-.63.53,0,1.13.38,1.79,1.13.66.76,1.22,1.62,1.67,2.58.45.96.68,1.71.68,2.23,0,1.2-.82,2.23-2.47,3.09-1.65.86-3.61,1.5-5.89,1.92-2.28.42-4.28.63-5.97.63-7.01,0-12.23-1.84-15.65-5.51ZM386.21,41.99c0-2.4-.48-4.31-1.43-5.75-.96-1.43-2.39-2.15-4.3-2.15-3.93,0-6.32,2.63-7.17,7.9h12.9Z"/>
  </g>
  <path class="uuid-ca585233-c0dd-4f36-bede-bca900890445" d="M87.81,27.21c-7.24-4.31-16.43-4.04-23.54.39l-7.35-7.05c-1.06-.83-2.32-1.11-3.64-.7-1.37.42-3.07,2.2-3.27,3.6-.04.28.03.62,0,.91.2.75.44,1.41.99,1.99l7.28,7.03c-1.75,2.75-3.03,5.74-3.45,8.97-1.47,11.21,6.43,21.48,17.93,23.38l2.47.3h2.35c21.18-1.19,28.33-28.04,10.24-38.82Z"/>
  <circle class="uuid-bad7ef0a-9db1-454a-b1f0-b499bdb6c2fe" cx="76.63" cy="45.11" r="16.71"/>
  <path class="uuid-771e82b1-40f6-440f-bdf3-c1d968b151e3" d="M105.03,17.79c.45,0,.64.43.4.77-9.71,9.86-19.62,19.87-27.46,31.18-.55.8-1.2,2.08-1.78,2.76-.47.55-.7.31-1.07-.15-1.56-1.98-2.87-4.95-4.33-7.14-1.68-2.53-3.72-5.09-6.52-6.57-.3-.16-1.61-.66-1.7-.82-.42-.8,1.26-.9,1.77-.93,4.94-.28,7.77,4.15,10.62,7.22.1.11.64.68.71.67,1.82-2.39,3.78-4.68,5.84-6.88,6.07-6.5,13.49-13.34,20.89-18.45.38-.27,2.36-1.66,2.64-1.66Z"/>
</svg>
