<?xml version="1.0" encoding="UTF-8" standalone="no"?>
<!DOCTYPE svg PUBLIC "-//W3C//DTD SVG 1.1//EN" "http://www.w3.org/Graphics/SVG/1.1/DTD/svg11.dtd">
<svg width="64" height="64" viewBox="0 0 3199 3199" version="1.1" xmlns="http://www.w3.org/2000/svg" xmlns:xlink="http://www.w3.org/1999/xlink" xml:space="preserve" xmlns:serif="http://www.serif.com/" style="fill-rule:evenodd;clip-rule:evenodd;stroke-linejoin:round;stroke-miterlimit:2;">
    <rect id="Artboard1" x="0" y="0" width="3198.304" height="3198.304" style="fill:none;"/>
    <g id="Artboard11" serif:id="Artboard1">
        <g transform="matrix(156.098699,0,0,156.098699,-94094.114501,-95865.518899)">
            <path d="M611.36,623.461L612.83,624.931C612.94,625.041 613.12,625.041 613.23,624.931L614.7,623.461C614.81,623.351 614.81,623.171 614.7,623.061C614.589,622.95 614.41,622.95 614.299,623.061L613.313,624.046L613.313,614.417C613.313,614.261 613.186,614.134 613.03,614.134C612.874,614.134 612.747,614.261 612.747,614.417L612.747,624.046L611.76,623.061C611.65,622.95 611.47,622.95 611.36,623.061C611.25,623.171 611.25,623.351 611.36,623.461Z" style="fill:rgb(47,55,64);fill-rule:nonzero;"/>
        </g>
        <g transform="matrix(156.098699,0,0,156.098699,-94094.114501,-95865.518899)">
            <path d="M617.085,634.056L608.974,634.056L608.974,631.966L617.085,631.966L617.085,634.056ZM617.299,618.794L614.838,618.794C614.682,618.794 614.555,618.921 614.555,619.077C614.555,619.234 614.682,619.361 614.838,619.361L617.085,619.361L617.085,631.4L608.974,631.4L608.974,619.361L611.078,619.361C611.235,619.361 611.362,619.234 611.362,619.077C611.362,618.921 611.235,618.794 611.078,618.794L609.031,618.794C608.686,618.794 608.408,619.073 608.408,619.417L608.408,633.966C608.408,634.328 608.702,634.623 609.065,634.623L616.995,634.623C617.358,634.623 617.653,634.328 617.653,633.966L617.653,619.148C617.653,618.952 617.495,618.794 617.299,618.794Z" style="fill:rgb(47,55,64);fill-rule:nonzero;"/>
        </g>
        <g transform="matrix(156.098699,0,0,156.098699,-94094.114501,-95865.518899)">
            <path d="M612.413,633.29L613.648,633.29C613.804,633.29 613.931,633.163 613.931,633.007C613.931,632.85 613.804,632.723 613.648,632.723L612.413,632.723C612.255,632.723 612.128,632.85 612.128,633.007C612.128,633.163 612.255,633.29 612.413,633.29Z" style="fill:rgb(47,55,64);fill-rule:nonzero;"/>
        </g>
    </g>
</svg>
