<?xml version="1.0" encoding="UTF-8" standalone="no"?>
<svg width="100%" height="100%" viewBox="0 0 100 100" version="1.1" xmlns="http://www.w3.org/2000/svg" xml:space="preserve" style="fill-rule:evenodd;clip-rule:evenodd;stroke-linejoin:round;stroke-miterlimit:2;">
    <path d="M100,14.706L100,85.294C100,93.411 93.411,100 85.294,100L14.706,100C6.589,100 0,93.411 0,85.294L0,14.706C0,6.589 6.589,0 14.706,0L85.294,0C93.411,0 100,6.589 100,14.706Z" style="fill:rgb(99,214,113);"/>
    <g style="fill:none;stroke:rgb(255,255,255);stroke-linecap:round;">
        <rect x="18" y="15" width="64" height="70" rx="4" style="stroke-width:4px;"/>
        <path d="M26.3,32L73.7,32" style="stroke-width:3.4px;"/>
        <path d="M26.3,40.7L73.7,40.7" style="stroke-width:3.4px;"/>
        <path d="M26.3,49.4L73.7,49.4" style="stroke-width:3.4px;"/>
        <path d="M26.3,58.1L73.7,58.1" style="stroke-width:3.4px;"/>
        <path d="M26.3,66.8L73.7,66.8" style="stroke-width:3.4px;"/>
    </g>
</svg>
