<?xml version="1.0" encoding="UTF-8" standalone="no"?>
<!DOCTYPE svg PUBLIC "-//W3C//DTD SVG 1.1//EN" "http://www.w3.org/Graphics/SVG/1.1/DTD/svg11.dtd">
<svg width="100%" height="100%" viewBox="0 0 3140 3151" version="1.1" xmlns="http://www.w3.org/2000/svg" xmlns:xlink="http://www.w3.org/1999/xlink" xml:space="preserve" xmlns:serif="http://www.serif.com/" style="fill-rule:evenodd;clip-rule:evenodd;stroke-linejoin:round;stroke-miterlimit:2;">
    <g transform="matrix(1,0,0,1,0,-48.710318)">
        <g transform="matrix(151.747986,0,0,151.747986,-60287.958853,-86182.990681)">
            <path d="M413.632,573.168L401.352,573.168L401.352,568.823L413.632,568.823L413.632,573.168ZM417.694,573.168L414.199,573.168L414.199,568.926C414.199,568.556 413.9,568.256 413.53,568.256L401.455,568.256C401.084,568.256 400.785,568.556 400.785,568.926L400.785,573.168L397.573,573.168C397.417,573.168 397.29,573.295 397.29,573.451C397.29,573.609 397.417,573.735 397.573,573.735L400.785,573.735L400.785,574.49C400.785,574.648 400.912,574.775 401.069,574.775C401.225,574.775 401.352,574.648 401.352,574.49L401.352,573.735L413.632,573.735L413.632,574.49C413.632,574.648 413.759,574.775 413.916,574.775C414.073,574.775 414.199,574.648 414.199,574.49L414.199,573.735L417.694,573.735C417.851,573.735 417.978,573.609 417.978,573.451C417.978,573.295 417.851,573.168 417.694,573.168Z" style="fill:rgb(209,128,82);fill-rule:nonzero;"/>
        </g>
        <g transform="matrix(151.747986,0,0,151.747986,-60287.958853,-86182.990681)">
            <path d="M414.739,585.433C414.739,587.096 413.385,588.448 411.722,588.448C410.059,588.448 408.707,587.096 408.707,585.433C408.707,583.77 410.059,582.416 411.722,582.416C413.385,582.416 414.739,583.77 414.739,585.433ZM415.427,576.097C415.28,576.045 415.118,576.122 415.066,576.27L412.947,582.07C412.564,581.93 412.153,581.85 411.722,581.85C410.433,581.85 409.305,582.535 408.673,583.56L402.686,583.56L400.108,576.27C400.055,576.122 399.893,576.045 399.746,576.097C399.598,576.149 399.521,576.311 399.574,576.458L402.218,583.938C402.258,584.051 402.366,584.126 402.486,584.126L408.389,584.126C408.23,584.531 408.139,584.972 408.139,585.433C408.139,587.408 409.747,589.016 411.722,589.016C413.698,589.016 415.305,587.408 415.305,585.433C415.305,584.089 414.561,582.918 413.464,582.305L415.6,576.458C415.652,576.311 415.575,576.149 415.427,576.097Z" style="fill:rgb(209,128,82);fill-rule:nonzero;"/>
        </g>
        <g transform="matrix(151.747986,0,0,151.747986,-60287.958853,-86182.990681)">
            <path d="M405.32,581.008L405.32,576.284C405.32,576.128 405.193,576.001 405.036,576.001C404.879,576.001 404.752,576.128 404.752,576.284L404.752,581.008C404.752,581.164 404.879,581.291 405.036,581.291C405.193,581.291 405.32,581.164 405.32,581.008Z" style="fill:rgb(209,128,82);fill-rule:nonzero;"/>
        </g>
        <g transform="matrix(151.747986,0,0,151.747986,-60287.958853,-86182.990681)">
            <path d="M407.87,578.458L407.87,576.285C407.87,576.129 407.743,576.002 407.586,576.002C407.43,576.002 407.303,576.129 407.303,576.285L407.303,578.458C407.303,578.615 407.43,578.741 407.586,578.741C407.743,578.741 407.87,578.615 407.87,578.458Z" style="fill:rgb(209,128,82);fill-rule:nonzero;"/>
        </g>
        <g transform="matrix(151.747986,0,0,151.747986,-60287.958853,-86182.990681)">
            <path d="M410.42,581.198L410.42,576.285C410.42,576.129 410.293,576.002 410.137,576.002C409.981,576.002 409.854,576.129 409.854,576.285L409.854,581.198C409.854,581.355 409.981,581.482 410.137,581.482C410.293,581.482 410.42,581.355 410.42,581.198Z" style="fill:rgb(209,128,82);fill-rule:nonzero;"/>
        </g>
        <g transform="matrix(151.747986,0,0,151.747986,-60287.958853,-86182.990681)">
            <path d="M413.148,584.918L411.926,584.918L411.926,583.696C411.926,583.539 411.799,583.412 411.643,583.412C411.486,583.412 411.359,583.539 411.359,583.696L411.359,584.918L410.137,584.918C409.981,584.918 409.854,585.044 409.854,585.201C409.854,585.358 409.981,585.485 410.137,585.485L411.359,585.485L411.359,586.706C411.359,586.864 411.486,586.99 411.643,586.99C411.799,586.99 411.926,586.864 411.926,586.706L411.926,585.485L413.148,585.485C413.305,585.485 413.432,585.358 413.432,585.201C413.432,585.044 413.305,584.918 413.148,584.918Z" style="fill:rgb(209,128,82);fill-rule:nonzero;"/>
        </g>
    </g>
</svg>
