<?xml version="1.0" encoding="UTF-8" standalone="no"?>
<!DOCTYPE svg PUBLIC "-//W3C//DTD SVG 1.1//EN" "http://www.w3.org/Graphics/SVG/1.1/DTD/svg11.dtd">
<svg width="100%" height="100%" viewBox="0 0 3199 3199" version="1.1" xmlns="http://www.w3.org/2000/svg" xmlns:xlink="http://www.w3.org/1999/xlink" xml:space="preserve" xmlns:serif="http://www.serif.com/" style="fill-rule:evenodd;clip-rule:evenodd;stroke-linejoin:round;stroke-miterlimit:2;">
    <rect id="Artboard1" x="0" y="0" width="3198.304" height="3198.304" style="fill:none;"/>
    <g id="Artboard11" serif:id="Artboard1">
        <g transform="matrix(153.794021,0,0,153.794021,-45298.182519,-31112.218823)">
            <path d="M295.106,208.669L314.752,208.669L314.767,208.666L314.767,222.231L295.104,222.231L295.106,208.669ZM295.107,203.161L301.524,203.161L304.2,206.115L304.41,206.207L314.767,206.207L314.767,208.106L314.752,208.103L295.106,208.103L295.107,203.161ZM294.821,222.798L315.051,222.798C315.208,222.798 315.334,222.671 315.334,222.515L315.334,205.924C315.334,205.768 315.208,205.641 315.051,205.641L304.536,205.641L301.86,202.687L301.65,202.594L294.824,202.594C294.667,202.594 294.541,202.721 294.541,202.877L294.54,208.375L294.538,208.386L294.54,208.397L294.538,222.515C294.538,222.671 294.664,222.798 294.821,222.798Z" style="fill:rgb(47,55,64);fill-rule:nonzero;"/>
        </g>
        <g transform="matrix(153.794021,0,0,153.794021,-45298.182519,-31112.218823)">
            <path d="M307.592,215.023L305.219,215.023L305.219,212.56C305.219,212.404 305.092,212.277 304.936,212.277C304.779,212.277 304.652,212.404 304.652,212.56L304.652,215.023L302.279,215.023C302.123,215.023 301.996,215.15 301.996,215.306C301.996,215.463 302.123,215.59 302.279,215.59L304.652,215.59L304.652,217.81C304.652,217.966 304.779,218.093 304.936,218.093C305.092,218.093 305.219,217.966 305.219,217.81L305.219,215.59L307.592,215.59C307.749,215.59 307.875,215.463 307.875,215.306C307.875,215.15 307.749,215.023 307.592,215.023Z" style="fill:rgb(47,55,64);fill-rule:nonzero;"/>
        </g>
    </g>
</svg>
