<?xml version="1.0" encoding="UTF-8" standalone="no"?>
<!DOCTYPE svg PUBLIC "-//W3C//DTD SVG 1.1//EN" "http://www.w3.org/Graphics/SVG/1.1/DTD/svg11.dtd">
<svg width="100%" height="100%" viewBox="0 0 3199 3199" version="1.1" xmlns="http://www.w3.org/2000/svg" xmlns:xlink="http://www.w3.org/1999/xlink" xml:space="preserve" xmlns:serif="http://www.serif.com/" style="fill-rule:evenodd;clip-rule:evenodd;stroke-linejoin:round;stroke-miterlimit:2;">
    <g>
        <circle cx="1599.5" cy="1599.5" r="1599.5" style="fill:rgb(217,122,69);"/>
        <g transform="matrix(0.522363,0,0,0.522363,770.982646,763.814582)">
            <g transform="matrix(155.862833,0,0,155.862833,-117944.684742,-109977.28191)">
                <path d="M757.534,725.557L761.618,725.557L761.618,715.851L757.534,715.851L757.534,725.557ZM761.902,726.123L757.25,726.123C757.094,726.123 756.967,725.996 756.967,725.84L756.967,715.567C756.967,715.41 757.094,715.283 757.25,715.283L761.902,715.283C762.058,715.283 762.185,715.41 762.185,715.567L762.185,725.84C762.185,725.996 762.058,726.123 761.902,726.123Z" style="fill:white;fill-rule:nonzero;"/>
            </g>
            <g transform="matrix(155.862833,0,0,155.862833,-117944.684742,-109977.28191)">
                <path d="M765.15,725.557L769.234,725.557L769.234,711.023L765.15,711.023L765.15,725.557ZM769.518,726.123L764.867,726.123C764.71,726.123 764.583,725.996 764.583,725.84L764.583,710.74C764.583,710.583 764.71,710.456 764.867,710.456L769.518,710.456C769.674,710.456 769.801,710.583 769.801,710.74L769.801,725.84C769.801,725.996 769.674,726.123 769.518,726.123Z" style="fill:white;fill-rule:nonzero;"/>
            </g>
            <g transform="matrix(155.862833,0,0,155.862833,-117944.684742,-109977.28191)">
                <path d="M772.589,725.557L776.673,725.557L776.673,706.17L772.589,706.17L772.589,725.557ZM776.957,726.123L772.306,726.123C772.15,726.123 772.023,725.996 772.023,725.84L772.023,705.887C772.023,705.73 772.15,705.603 772.306,705.603L776.957,705.603C777.114,705.603 777.241,705.73 777.241,705.887L777.241,725.84C777.241,725.996 777.114,726.123 776.957,726.123Z" style="fill:white;fill-rule:nonzero;"/>
            </g>
            <g transform="matrix(155.862833,0,0,155.862833,-117944.684742,-109977.28191)">
                <path d="M764.342,706.031C764.342,706.187 764.469,706.314 764.626,706.314L766.305,706.314L757.029,713.182C756.903,713.276 756.876,713.452 756.969,713.578C757.063,713.704 757.24,713.731 757.366,713.638L766.84,706.623L766.84,708.51C766.84,708.666 766.967,708.793 767.124,708.793C767.28,708.793 767.407,708.666 767.407,708.51L767.407,706.031C767.407,705.874 767.28,705.747 767.124,705.747L764.626,705.747C764.469,705.747 764.342,705.874 764.342,706.031Z" style="fill:white;fill-rule:nonzero;"/>
            </g>
        </g>
    </g>
</svg>
