<?xml version="1.0" encoding="UTF-8" standalone="no"?>
<!DOCTYPE svg PUBLIC "-//W3C//DTD SVG 1.1//EN" "http://www.w3.org/Graphics/SVG/1.1/DTD/svg11.dtd">
<svg width="64" height="64" viewBox="0 0 3199 3199" version="1.1" xmlns="http://www.w3.org/2000/svg" xmlns:xlink="http://www.w3.org/1999/xlink" xml:space="preserve" xmlns:serif="http://www.serif.com/" style="fill-rule:evenodd;clip-rule:evenodd;stroke-linejoin:round;stroke-miterlimit:2;">
    <rect id="Artboard1" x="0" y="0" width="3198.304" height="3198.304" style="fill:none;"/>
    <clipPath id="_clip1">
        <rect id="Artboard11" serif:id="Artboard1" x="0" y="0" width="3198.304" height="3198.304"/>
    </clipPath>
    <g clip-path="url(#_clip1)">
        <g transform="matrix(127.617142,0,0,127.617142,-30950.150151,-60278.031771)">
            <path d="M263.702,484.33C263.545,484.33 263.418,484.457 263.418,484.614L263.418,496.867L243.754,496.867L243.754,477.457L255.721,477.457C255.877,477.457 256.004,477.33 256.004,477.173C256.004,477.017 255.877,476.89 255.721,476.89L243.471,476.89C243.315,476.89 243.188,477.017 243.188,477.173L243.188,497.151C243.188,497.307 243.315,497.434 243.471,497.434L263.702,497.434C263.858,497.434 263.985,497.307 263.985,497.151L263.985,484.614C263.985,484.457 263.858,484.33 263.702,484.33Z" style="fill:rgb(47,55,64);fill-rule:nonzero;"/>
        </g>
        <g transform="matrix(190.592885,0,0,190.592885,-35244.276267,-75602.034625)">
            <path d="M192.41,405.493L192.611,405.576L192.811,405.493L200.505,397.799L199.937,400.43C199.904,400.583 200.001,400.735 200.154,400.767L200.214,400.774C200.345,400.774 200.462,400.683 200.491,400.55L201.255,397.011L201.188,396.76C201.126,396.693 201.036,396.658 200.945,396.67L197.35,397.102C197.195,397.12 197.083,397.261 197.102,397.417C197.122,397.573 197.262,397.684 197.417,397.664L200.168,397.334L192.41,405.093C192.299,405.203 192.299,405.383 192.41,405.493Z" style="fill:rgb(47,55,64);fill-rule:nonzero;"/>
        </g>
    </g>
</svg>
