<?xml version="1.0" encoding="UTF-8" standalone="no"?>
<!DOCTYPE svg PUBLIC "-//W3C//DTD SVG 1.1//EN" "http://www.w3.org/Graphics/SVG/1.1/DTD/svg11.dtd">
<svg width="100%" height="100%" viewBox="0 0 3199 3199" version="1.1" xmlns="http://www.w3.org/2000/svg" xmlns:xlink="http://www.w3.org/1999/xlink" xml:space="preserve" xmlns:serif="http://www.serif.com/" style="fill-rule:evenodd;clip-rule:evenodd;stroke-linejoin:round;stroke-miterlimit:2;">
    <g>
        <circle cx="1599.5" cy="1599.5" r="1599.5" style="fill:rgb(217,122,69);"/>
        <g transform="matrix(141.478603,0,0,141.478603,-92439.768087,-34971.153282)">
            <path d="M666.89,261.209C667.003,261.323 667.189,261.321 667.298,261.201C667.943,260.504 669.728,258.366 669.728,256.113C669.728,254.8 669.345,250.516 664.415,250.516C660.741,250.516 659.03,252.227 659.03,255.901C659.03,258.465 661.034,260.51 661.693,261.113L661.793,261.342L661.793,263.467C661.793,263.631 661.926,263.765 662.09,263.765L666.752,263.765L666.752,265.89L662.289,265.89C662.132,265.89 662.005,266.017 662.005,266.173L662.005,266.174C662.005,266.33 662.132,266.457 662.289,266.457L667.022,266.457C667.186,266.457 667.319,266.323 667.319,266.159L667.319,263.495C667.319,263.331 667.186,263.198 667.022,263.198L664.81,263.198L664.81,258.673L667.107,256.443C667.217,256.332 667.217,256.153 667.107,256.042C666.996,255.932 666.817,255.932 666.706,256.042L664.556,258.192L664.553,258.197L661.774,255.532C661.663,255.425 661.486,255.427 661.376,255.536C661.265,255.649 661.267,255.831 661.381,255.942L664.114,258.56L664.202,258.766L664.202,263.198L662.36,263.198L662.36,260.939L662.256,260.854C662.23,260.831 659.596,258.64 659.596,255.901C659.596,252.569 661.083,251.082 664.415,251.082C668.699,251.082 669.162,254.601 669.162,256.113C669.162,258.172 667.482,260.169 666.881,260.819C666.778,260.93 666.782,261.102 666.89,261.209Z" style="fill:white;fill-rule:nonzero;"/>
        </g>
    </g>
</svg>
