<?xml version="1.0" encoding="UTF-8" standalone="no"?>
<!DOCTYPE svg PUBLIC "-//W3C//DTD SVG 1.1//EN" "http://www.w3.org/Graphics/SVG/1.1/DTD/svg11.dtd">
<svg width="100%" height="100%" viewBox="0 0 3199 3199" version="1.1" xmlns="http://www.w3.org/2000/svg" xmlns:xlink="http://www.w3.org/1999/xlink" xml:space="preserve" xmlns:serif="http://www.serif.com/" style="fill-rule:evenodd;clip-rule:evenodd;stroke-linejoin:round;stroke-miterlimit:2;">
    <g>
        <circle cx="1599.5" cy="1599.5" r="1599.5" style="fill:rgb(217,122,69);"/>
        <g transform="matrix(85.038733,0,0,85.038733,-85475.794817,-70946.626411)">
            <path d="M1033.6,858.734L1030.16,858.734L1030.16,847.165C1030.16,847.008 1030.04,846.882 1029.88,846.882L1018.05,846.882L1018.05,843.385L1033.6,843.385L1033.6,858.734ZM1029.6,862.796L1014.05,862.796L1014.05,847.448L1029.6,847.448L1029.6,862.796ZM1033.88,842.819L1017.77,842.819C1017.61,842.819 1017.48,842.946 1017.48,843.102L1017.48,846.882L1013.76,846.882C1013.61,846.882 1013.48,847.008 1013.48,847.165L1013.48,863.079C1013.48,863.236 1013.61,863.363 1013.76,863.363L1029.88,863.363C1030.04,863.363 1030.16,863.236 1030.16,863.079L1030.16,859.3L1033.88,859.3C1034.04,859.3 1034.16,859.173 1034.16,859.017L1034.16,843.102C1034.16,842.946 1034.04,842.819 1033.88,842.819Z" style="fill:white;fill-rule:nonzero;"/>
        </g>
        <g transform="matrix(85.038733,0,0,85.038733,-85475.794817,-70946.626411)">
            <path d="M1026.36,851.455L1019.52,858.291L1017.43,855.977C1017.3,855.888 1017.13,855.92 1017.04,856.049C1016.95,856.178 1016.98,856.355 1017.11,856.444L1019.39,858.892L1019.55,858.942L1019.75,858.859L1026.76,851.856C1026.87,851.745 1026.87,851.566 1026.76,851.455C1026.65,851.344 1026.47,851.344 1026.36,851.455Z" style="fill:white;fill-rule:nonzero;"/>
        </g>
    </g>
</svg>
