<?xml version="1.0" encoding="UTF-8" standalone="no"?>
<!DOCTYPE svg PUBLIC "-//W3C//DTD SVG 1.1//EN" "http://www.w3.org/Graphics/SVG/1.1/DTD/svg11.dtd">
<svg width="100%" height="100%" viewBox="0 0 3199 2852" version="1.1" xmlns="http://www.w3.org/2000/svg" xmlns:xlink="http://www.w3.org/1999/xlink" xml:space="preserve" xmlns:serif="http://www.serif.com/" style="fill-rule:evenodd;clip-rule:evenodd;stroke-linejoin:round;stroke-miterlimit:2;">
    <g transform="matrix(1,0,0,1,0,-214.912375)">
        <g transform="matrix(155.163182,0,0,155.163182,-149292.579359,-166214.894778)">
            <path d="M982.499,1090.99L962.448,1090.99C962.292,1090.99 962.165,1090.87 962.165,1090.71C962.165,1090.55 962.292,1090.43 962.448,1090.43L982.499,1090.43C982.655,1090.43 982.782,1090.55 982.782,1090.71C982.782,1090.87 982.655,1090.99 982.499,1090.99Z" style="fill:rgb(35,91,42);fill-rule:nonzero;"/>
        </g>
        <g transform="matrix(155.163182,0,0,155.163182,-149292.579359,-166214.894778)">
            <path d="M970.755,1087.36L970.758,1087.36L970.755,1087.36ZM967.774,1085.31L967.948,1088.11L970.568,1087.12L978.364,1075.1L975.569,1073.29L967.774,1085.31ZM967.689,1088.8L967.535,1088.75L967.406,1088.53L967.203,1085.26L967.248,1085.08L975.248,1072.74C975.333,1072.61 975.508,1072.57 975.639,1072.66L978.91,1074.78L979.033,1074.96L978.994,1075.17L970.993,1087.51L970.856,1087.62L967.789,1088.78L967.689,1088.8Z" style="fill:rgb(35,91,42);fill-rule:nonzero;"/>
        </g>
    </g>
</svg>
