<?xml version="1.0" encoding="UTF-8" standalone="no"?>
<!DOCTYPE svg PUBLIC "-//W3C//DTD SVG 1.1//EN" "http://www.w3.org/Graphics/SVG/1.1/DTD/svg11.dtd">
<svg width="100%" height="100%" viewBox="0 0 3199 2896" version="1.1" xmlns="http://www.w3.org/2000/svg" xmlns:xlink="http://www.w3.org/1999/xlink" xml:space="preserve" xmlns:serif="http://www.serif.com/" style="fill-rule:evenodd;clip-rule:evenodd;stroke-linejoin:round;stroke-miterlimit:2;">
    <g transform="matrix(1,0,0,1,0,-295.940979)">
        <g transform="matrix(175.691054,0,0,175.691054,-115125.959789,-51698.241585)">
            <path d="M668.246,309.805L668.229,309.805L668.229,309.831L667.996,310.188L667.79,310.315L666.195,310.492C666.017,310.512 665.866,310.364 665.881,310.185L666.018,308.683L666.065,308.55L670.648,301.745C670.734,301.616 670.907,301.581 671.037,301.665L672.568,302.657C672.7,302.742 672.737,302.918 672.652,303.05L668.246,309.805ZM668.111,310.85L668.111,311.855L655.842,311.855L655.842,296.507L664.533,296.507L664.533,299.673C664.533,299.829 664.66,299.956 664.817,299.956L667.856,299.956L667.932,299.945L668.111,299.945L668.111,304.498L665.514,308.354L665.467,308.487L665.254,310.824C665.238,311.003 665.39,311.152 665.568,311.132L668.111,310.85ZM665.1,296.891L667.692,299.39L665.383,299.39C665.227,299.39 665.1,299.263 665.1,299.106L665.1,296.891ZM673.437,302.883C673.523,302.752 673.485,302.576 673.354,302.49L670.877,300.887C670.748,300.803 670.575,300.838 670.489,300.966L668.677,303.656L668.677,299.673L668.59,299.469L665.013,296.02L664.817,295.941L655.558,295.941C655.402,295.941 655.275,296.068 655.275,296.224L655.275,312.138C655.275,312.295 655.402,312.422 655.558,312.422L668.394,312.422C668.55,312.422 668.677,312.295 668.677,312.138L668.677,310.425L668.654,310.313L668.654,310.217L673.437,302.883Z" style="fill:rgb(209,128,82);fill-rule:nonzero;"/>
        </g>
    </g>
</svg>
