<?xml version="1.0" encoding="UTF-8" standalone="no"?>
<!DOCTYPE svg PUBLIC "-//W3C//DTD SVG 1.1//EN" "http://www.w3.org/Graphics/SVG/1.1/DTD/svg11.dtd">
<svg width="100%" height="100%" viewBox="0 0 3199 3199" version="1.1" xmlns="http://www.w3.org/2000/svg" xmlns:xlink="http://www.w3.org/1999/xlink" xml:space="preserve" xmlns:serif="http://www.serif.com/" style="fill-rule:evenodd;clip-rule:evenodd;stroke-linejoin:round;stroke-miterlimit:2;">
    <rect id="Artboard1" x="0" y="0" width="3198.304" height="3198.304" style="fill:none;"/>
    <clipPath id="_clip1">
        <rect id="Artboard11" serif:id="Artboard1" x="0" y="0" width="3198.304" height="3198.304"/>
    </clipPath>
    <g clip-path="url(#_clip1)">
        <g transform="matrix(156.396274,0,0,156.396274,-94276.374478,-167591.119169)">
            <path d="M612.909,1072.15C610.456,1072.15 608.459,1074.14 608.459,1076.6C608.459,1079.05 610.456,1081.05 612.909,1081.05C615.363,1081.05 617.358,1079.05 617.358,1076.6C617.358,1074.14 615.363,1072.15 612.909,1072.15ZM612.909,1081.61C610.143,1081.61 607.893,1079.36 607.893,1076.6C607.893,1073.83 610.143,1071.58 612.909,1071.58C615.675,1071.58 617.925,1073.83 617.925,1076.6C617.925,1079.36 615.675,1081.61 612.909,1081.61Z" style="fill:rgb(47,55,64);fill-rule:nonzero;"/>
        </g>
        <g transform="matrix(156.396274,0,0,156.396274,-94276.374478,-167591.119169)">
            <path d="M607.156,1091.46L618.904,1091.46L618.904,1087.49C618.904,1084.25 616.269,1081.61 613.03,1081.61C609.792,1081.61 607.156,1084.25 607.156,1087.49L607.156,1091.46ZM619.187,1092.03L606.873,1092.03C606.716,1092.03 606.589,1091.9 606.589,1091.74L606.589,1087.49C606.589,1083.94 609.479,1081.05 613.03,1081.05C616.582,1081.05 619.47,1083.94 619.47,1087.49L619.47,1091.74C619.47,1091.9 619.344,1092.03 619.187,1092.03Z" style="fill:rgb(47,55,64);fill-rule:nonzero;"/>
        </g>
    </g>
</svg>
