<?xml version="1.0" encoding="UTF-8" standalone="no"?>
<!DOCTYPE svg PUBLIC "-//W3C//DTD SVG 1.1//EN" "http://www.w3.org/Graphics/SVG/1.1/DTD/svg11.dtd">
<svg width="64" height="64" viewBox="0 0 3199 3199" version="1.1" xmlns="http://www.w3.org/2000/svg" xmlns:xlink="http://www.w3.org/1999/xlink" xml:space="preserve" xmlns:serif="http://www.serif.com/" style="fill-rule:evenodd;clip-rule:evenodd;stroke-linejoin:round;stroke-miterlimit:2;">
    <rect id="Artboard1" x="0" y="0" width="3198.304" height="3198.304" style="fill:none;"/>
    <clipPath id="_clip1">
        <rect id="Artboard11" serif:id="Artboard1" x="0" y="0" width="3198.304" height="3198.304"/>
    </clipPath>
    <g clip-path="url(#_clip1)">
        <g transform="matrix(129.516,0,0,129.516,-11292.746379,-138511.904827)">
            <path d="M108.615,1075.34L108.538,1075.33L99.624,1072.8L90.711,1075.33C90.562,1075.37 90.404,1075.29 90.361,1075.13C90.318,1074.98 90.405,1074.83 90.557,1074.78L99.547,1072.23L99.701,1072.23L108.692,1074.78C108.842,1074.83 108.93,1074.98 108.887,1075.13C108.852,1075.26 108.739,1075.34 108.615,1075.34Z" style="fill:rgb(47,55,64);fill-rule:nonzero;"/>
        </g>
        <g transform="matrix(129.516,0,0,129.516,-11292.746379,-138511.904827)">
            <path d="M99.624,1078.18L99.541,1078.16L90.551,1075.42C90.401,1075.38 90.317,1075.22 90.362,1075.07C90.408,1074.92 90.566,1074.84 90.716,1074.88L99.624,1077.59L108.533,1074.88C108.682,1074.84 108.84,1074.92 108.886,1075.07C108.931,1075.22 108.847,1075.38 108.697,1075.42L99.706,1078.16L99.624,1078.18Z" style="fill:rgb(47,55,64);fill-rule:nonzero;"/>
        </g>
        <g transform="matrix(129.516,0,0,129.516,-11292.746379,-138511.904827)">
            <path d="M99.624,1092.11L99.533,1092.1L90.543,1089.08C90.428,1089.04 90.351,1088.93 90.351,1088.81L90.351,1077.82C90.351,1077.67 90.477,1077.54 90.634,1077.54C90.79,1077.54 90.917,1077.67 90.917,1077.82L90.917,1088.6L99.631,1091.53L108.332,1089.06L108.332,1077.96C108.332,1077.8 108.458,1077.68 108.615,1077.68C108.771,1077.68 108.898,1077.8 108.898,1077.96L108.898,1089.28C108.898,1089.41 108.814,1089.52 108.692,1089.55L99.701,1092.1L99.624,1092.11Z" style="fill:rgb(47,55,64);fill-rule:nonzero;"/>
        </g>
        <g transform="matrix(129.516,0,0,129.516,-11292.746379,-138511.904827)">
            <path d="M99.624,1092.11C99.467,1092.11 99.341,1091.99 99.341,1091.83L99.341,1077.89C99.341,1077.73 99.467,1077.61 99.624,1077.61C99.78,1077.61 99.907,1077.73 99.907,1077.89L99.907,1091.83C99.907,1091.99 99.78,1092.11 99.624,1092.11Z" style="fill:rgb(47,55,64);fill-rule:nonzero;"/>
        </g>
        <g transform="matrix(129.516,0,0,129.516,-11292.746379,-138511.904827)">
            <path d="M90.937,1075.53L90.856,1075.52L87.713,1074.6C87.591,1074.56 87.508,1074.45 87.509,1074.33C87.51,1074.2 87.594,1074.09 87.716,1074.05L96.847,1071.5L96.997,1071.5L99.698,1072.23C99.849,1072.27 99.939,1072.43 99.897,1072.58C99.856,1072.73 99.699,1072.82 99.55,1072.78L96.924,1072.07L88.824,1074.33L91.016,1074.97C91.165,1075.02 91.252,1075.17 91.208,1075.32C91.172,1075.45 91.059,1075.53 90.937,1075.53Z" style="fill:rgb(47,55,64);fill-rule:nonzero;"/>
        </g>
        <g transform="matrix(129.516,0,0,129.516,-11292.746379,-138511.904827)">
            <path d="M108.312,1075.53C108.189,1075.53 108.076,1075.45 108.041,1075.32C107.997,1075.17 108.083,1075.02 108.233,1074.97L110.423,1074.33L102.324,1072.07L99.698,1072.78C99.55,1072.82 99.392,1072.73 99.351,1072.58C99.31,1072.43 99.398,1072.27 99.55,1072.23L102.251,1071.5L102.402,1071.5L111.533,1074.05C111.655,1074.09 111.739,1074.2 111.74,1074.33C111.741,1074.45 111.657,1074.56 111.536,1074.6L108.392,1075.52L108.312,1075.53Z" style="fill:rgb(47,55,64);fill-rule:nonzero;"/>
        </g>
        <g transform="matrix(129.516,0,0,129.516,-11292.746379,-138511.904827)">
            <path d="M96.419,1080.2L96.321,1080.19L87.378,1076.9C87.271,1076.86 87.197,1076.76 87.192,1076.65C87.189,1076.53 87.254,1076.43 87.358,1076.38L90.822,1074.8C90.964,1074.73 91.133,1074.8 91.197,1074.94C91.263,1075.08 91.199,1075.25 91.058,1075.32L88.221,1076.61L96.4,1079.61L99.471,1078.03C99.61,1077.96 99.781,1078.01 99.854,1078.15C99.925,1078.29 99.87,1078.46 99.731,1078.53L96.55,1080.17L96.419,1080.2Z" style="fill:rgb(47,55,64);fill-rule:nonzero;"/>
        </g>
        <g transform="matrix(129.516,0,0,129.516,-11292.746379,-138511.904827)">
            <path d="M102.66,1080.2L102.529,1080.17L99.347,1078.53C99.208,1078.46 99.153,1078.29 99.225,1078.15C99.297,1078.01 99.467,1077.96 99.607,1078.03L102.678,1079.61L110.858,1076.61L108.021,1075.32C107.879,1075.25 107.816,1075.08 107.881,1074.94C107.946,1074.8 108.114,1074.73 108.256,1074.8L111.72,1076.38C111.825,1076.43 111.89,1076.53 111.886,1076.65C111.881,1076.76 111.808,1076.86 111.701,1076.9L102.757,1080.19L102.66,1080.2Z" style="fill:rgb(47,55,64);fill-rule:nonzero;"/>
        </g>
    </g>
</svg>
