<?xml version="1.0" encoding="UTF-8" standalone="no"?>
<!DOCTYPE svg PUBLIC "-//W3C//DTD SVG 1.1//EN" "http://www.w3.org/Graphics/SVG/1.1/DTD/svg11.dtd">
<svg width="100%" height="100%" viewBox="0 0 3199 3199" version="1.1" xmlns="http://www.w3.org/2000/svg" xmlns:xlink="http://www.w3.org/1999/xlink" xml:space="preserve" xmlns:serif="http://www.serif.com/" style="fill-rule:evenodd;clip-rule:evenodd;stroke-linejoin:round;stroke-miterlimit:2;">
    <g>
        <circle cx="1599.5" cy="1599.5" r="1599.5" style="fill:rgb(217,122,69);"/>
        <g transform="matrix(102.26517,0,0,102.26517,-92599.749942,-76286.56434)">
            <path d="M927.359,771.312L914.889,771.312L914.889,756.292L916.661,756.292L916.661,759.055C916.661,759.212 916.788,759.339 916.944,759.339C917.101,759.339 917.227,759.212 917.227,759.055L917.227,756.292L925.021,756.292L925.021,759.055C925.021,759.212 925.148,759.339 925.304,759.339C925.46,759.339 925.587,759.212 925.587,759.055L925.587,756.292L927.359,756.292L927.359,771.312ZM921.125,751.9C923.249,751.9 924.979,753.61 925.017,755.726L917.231,755.726C917.269,753.61 919,751.9 921.125,751.9ZM927.642,755.726L925.584,755.726C925.545,753.297 923.562,751.332 921.125,751.332C918.687,751.332 916.703,753.297 916.665,755.726L914.606,755.726C914.45,755.726 914.323,755.852 914.323,756.009L914.323,771.596C914.323,771.752 914.45,771.879 914.606,771.879L927.642,771.879C927.799,771.879 927.925,771.752 927.925,771.596L927.925,756.009C927.925,755.852 927.799,755.726 927.642,755.726Z" style="fill:white;fill-rule:nonzero;"/>
        </g>
        <g transform="matrix(102.26517,0,0,102.26517,-92599.749942,-76286.56434)">
            <path d="M924.878,761.301C924.764,761.226 924.611,761.257 924.536,761.371L920.386,767.664L918.357,765.654C918.26,765.558 918.104,765.559 918.008,765.656C917.912,765.752 917.913,765.908 918.009,766.005L920.253,768.228L920.427,768.299L920.453,768.298L920.633,768.188L924.949,761.643C925.023,761.53 924.992,761.376 924.878,761.301Z" style="fill:white;fill-rule:nonzero;"/>
        </g>
    </g>
</svg>
