<?xml version="1.0" encoding="UTF-8" standalone="no"?>
<!DOCTYPE svg PUBLIC "-//W3C//DTD SVG 1.1//EN" "http://www.w3.org/Graphics/SVG/1.1/DTD/svg11.dtd">
<svg width="64" height="64" viewBox="0 0 3199 3199" version="1.1" xmlns="http://www.w3.org/2000/svg" xmlns:xlink="http://www.w3.org/1999/xlink" xml:space="preserve" xmlns:serif="http://www.serif.com/" style="fill-rule:evenodd;clip-rule:evenodd;stroke-linejoin:round;stroke-miterlimit:2;">
    <rect id="Artboard1" x="0" y="0" width="3198.304" height="3198.304" style="fill:none;"/>
    <clipPath id="_clip1">
        <rect id="Artboard11" serif:id="Artboard1" x="0" y="0" width="3198.304" height="3198.304"/>
    </clipPath>
    <g clip-path="url(#_clip1)">
        <g transform="matrix(1.680704,0,0,1.680704,-1722.819233,-2177.097585)">
            <circle cx="1976.536" cy="2246.826" r="951.477" style="fill:rgb(99,214,113);"/>
        </g>
        <g transform="matrix(93.050738,0,0,93.050738,-45887.572186,-94795.829864)">
            <path d="M510.332,1026.07C504.888,1026.07 500.46,1030.5 500.46,1035.94C500.46,1041.39 504.888,1045.811 510.332,1045.811C515.775,1045.811 520.203,1041.39 520.203,1035.94C520.203,1030.5 515.775,1026.07 510.332,1026.07ZM510.332,1046.38C504.576,1046.38 499.893,1041.7 499.893,1035.94C499.893,1030.19 504.576,1025.5 510.332,1025.5C516.086,1025.5 520.77,1030.19 520.77,1035.94C520.77,1041.7 516.086,1046.38 510.332,1046.38Z" style="fill:none;fill-rule:nonzero;"/>
        </g>
        <g transform="matrix(93.050738,0,0,93.050738,-45887.572186,-94795.829864)">
            <path d="M510.296,1046.28C510.161,1046.28 510.041,1046.181 510.017,1046.041C509.991,1045.89 510.094,1045.74 510.249,1045.71C514.267,1045.02 517.297,1040.82 517.297,1035.94C517.297,1031.14 514.44,1027.051 510.504,1026.22C510.351,1026.19 510.253,1026.041 510.286,1025.88C510.317,1025.73 510.468,1025.63 510.621,1025.661C514.818,1026.551 517.865,1030.87 517.865,1035.94C517.865,1041.1 514.632,1045.541 510.344,1046.27L510.296,1046.28Z" style="fill:none;fill-rule:nonzero;"/>
        </g>
        <g transform="matrix(93.050738,0,0,93.050738,-45887.572186,-94795.829864)">
            <path d="M510.333,1046.28L510.284,1046.27C506.015,1045.541 502.796,1041.1 502.796,1035.94C502.796,1030.87 505.83,1026.551 510.008,1025.661C510.163,1025.63 510.312,1025.73 510.344,1025.88C510.376,1026.041 510.279,1026.19 510.125,1026.22C506.208,1027.051 503.364,1031.14 503.364,1035.94C503.364,1040.82 506.38,1045.02 510.38,1045.71C510.535,1045.74 510.638,1045.89 510.611,1046.041C510.587,1046.181 510.468,1046.28 510.333,1046.28Z" style="fill:none;fill-rule:nonzero;"/>
        </g>
        <g transform="matrix(93.050738,0,0,93.050738,-45887.572186,-94795.829864)">
            <path d="M510.332,1032.161C507.543,1032.161 504.922,1031.07 502.951,1029.1L503.352,1028.7C505.216,1030.57 507.695,1031.59 510.332,1031.59C513.004,1031.59 515.507,1030.541 517.379,1028.63L517.784,1029.03C515.804,1031.051 513.158,1032.161 510.332,1032.161Z" style="fill:none;fill-rule:nonzero;"/>
        </g>
        <g transform="matrix(93.050738,0,0,93.050738,-45887.572186,-94795.829864)">
            <path d="M503.283,1043.25L502.877,1042.85C504.858,1040.84 507.505,1039.72 510.332,1039.72C513.12,1039.72 515.742,1040.811 517.713,1042.78L517.312,1043.181C515.448,1041.32 512.969,1040.291 510.332,1040.291C507.659,1040.291 505.155,1041.34 503.283,1043.25Z" style="fill:none;fill-rule:nonzero;"/>
        </g>
        <g transform="matrix(93.050738,0,0,93.050738,-45887.572186,-94795.829864)">
            <rect x="500.177" y="1035.661" width="20.31" height="0.559" style="fill:none;fill-rule:nonzero;"/>
        </g>
        <g transform="matrix(93.050738,0,0,93.050738,-45887.572186,-94795.829864)">
            <path d="M510.332,1046.38C510.175,1046.38 510.048,1046.25 510.048,1046.1L510.048,1025.791C510.048,1025.63 510.175,1025.5 510.332,1025.5C510.489,1025.5 510.616,1025.63 510.616,1025.791L510.616,1046.1C510.616,1046.25 510.489,1046.38 510.332,1046.38Z" style="fill:none;fill-rule:nonzero;"/>
        </g>
    </g>
</svg>
