<?xml version="1.0" encoding="UTF-8" standalone="no"?>
<!DOCTYPE svg PUBLIC "-//W3C//DTD SVG 1.1//EN" "http://www.w3.org/Graphics/SVG/1.1/DTD/svg11.dtd">
<svg width="64" height="64" viewBox="0 0 3199 3199" version="1.1" xmlns="http://www.w3.org/2000/svg" xmlns:xlink="http://www.w3.org/1999/xlink" xml:space="preserve" xmlns:serif="http://www.serif.com/" style="fill-rule:evenodd;clip-rule:evenodd;stroke-linejoin:round;stroke-miterlimit:2;">
    <rect id="Artboard1" x="0" y="0" width="3198.304" height="3198.304" style="fill:none;"/>
    <clipPath id="_clip1">
        <rect id="Artboard11" serif:id="Artboard1" x="0" y="0" width="3198.304" height="3198.304"/>
    </clipPath>
    <g clip-path="url(#_clip1)">
        <g transform="matrix(1.680704,0,0,1.680704,-1722.819233,-2177.097585)">
            <circle cx="1976.536" cy="2246.826" r="951.477" style="fill:rgb(99,214,113);"/>
        </g>
        <g transform="matrix(70.875802,0,0,70.875802,-16370.646486,-39499.721931)">
            <path d="M263.418,573.323L243.754,573.323L243.754,571.091L248.036,571.091L248.036,572.331C248.036,572.488 248.163,572.615 248.319,572.615C248.475,572.615 248.602,572.488 248.602,572.331L248.602,571.091L258.427,571.091L258.427,572.331C258.427,572.488 258.553,572.615 258.709,572.615C258.867,572.615 258.993,572.488 258.993,572.331L258.993,571.091L263.418,571.091L263.418,573.323ZM263.418,588.341L243.754,588.341L243.754,573.89L263.418,573.89L263.418,588.341ZM263.702,570.525L258.993,570.525L258.993,568.647C258.993,568.49 258.867,568.364 258.709,568.364C258.553,568.364 258.427,568.49 258.427,568.647L258.427,570.525L248.602,570.525L248.602,568.647C248.602,568.49 248.475,568.364 248.319,568.364C248.163,568.364 248.036,568.49 248.036,568.647L248.036,570.525L243.471,570.525C243.315,570.525 243.188,570.652 243.188,570.808L243.188,588.624C243.188,588.781 243.315,588.908 243.471,588.908L263.702,588.908C263.858,588.908 263.985,588.781 263.985,588.624L263.985,570.808C263.985,570.652 263.858,570.525 263.702,570.525Z" style="fill:none;fill-rule:nonzero;"/>
        </g>
        <g transform="matrix(70.875802,0,0,70.875802,-16370.646486,-39499.721931)">
            <path d="M251,581.33L253.292,581.33L253.292,583.563C253.292,583.719 253.418,583.846 253.575,583.846C253.731,583.846 253.858,583.719 253.858,583.563L253.858,581.33L256.173,581.33C256.329,581.33 256.457,581.203 256.457,581.047C256.457,580.891 256.329,580.764 256.173,580.764L253.858,580.764L253.858,578.543C253.858,578.387 253.731,578.26 253.575,578.26C253.418,578.26 253.292,578.387 253.292,578.543L253.292,580.764L251,580.764C250.844,580.764 250.717,580.891 250.717,581.047C250.717,581.203 250.844,581.33 251,581.33Z" style="fill:rgb(35,91,42);fill-rule:nonzero;"/>
        </g>
    </g>
</svg>
