<?xml version="1.0" encoding="UTF-8" standalone="no"?>
<!DOCTYPE svg PUBLIC "-//W3C//DTD SVG 1.1//EN" "http://www.w3.org/Graphics/SVG/1.1/DTD/svg11.dtd">
<svg width="64" height="64" viewBox="0 0 3199 3199" version="1.1" xmlns="http://www.w3.org/2000/svg" xmlns:xlink="http://www.w3.org/1999/xlink" xml:space="preserve" xmlns:serif="http://www.serif.com/" style="fill-rule:evenodd;clip-rule:evenodd;stroke-linejoin:round;stroke-miterlimit:2;">
    <rect id="Artboard1" x="0" y="0" width="3198.304" height="3198.304" style="fill:none;"/>
    <clipPath id="_clip1">
        <rect id="Artboard11" serif:id="Artboard1" x="0" y="0" width="3198.304" height="3198.304"/>
    </clipPath>
    <g clip-path="url(#_clip1)">
        <g transform="matrix(1.680704,0,0,1.680704,-1722.819233,-2177.097585)">
            <circle cx="1976.536" cy="2246.826" r="951.477" style="fill:rgb(99,214,113);"/>
        </g>
        <g transform="matrix(1.141223,0,0,1.141223,-159.958139,-225.83684)">
            <g transform="matrix(85.55817,0,0,85.55817,-59599.225787,-90958.104349)">
                <path d="M714.358,1072.15C711.905,1072.15 709.909,1074.14 709.909,1076.6C709.909,1079.05 711.905,1081.05 714.358,1081.05C716.811,1081.05 718.807,1079.05 718.807,1076.6C718.807,1074.14 716.811,1072.15 714.358,1072.15ZM714.358,1081.61C711.592,1081.61 709.341,1079.36 709.341,1076.6C709.341,1073.83 711.592,1071.58 714.358,1071.58C717.124,1071.58 719.375,1073.83 719.375,1076.6C719.375,1079.36 717.124,1081.61 714.358,1081.61Z" style="fill:white;fill-rule:nonzero;"/>
            </g>
            <g transform="matrix(85.55817,0,0,85.55817,-59599.225787,-90958.104349)">
                <path d="M716.97,1092.03L708.322,1092.03C708.166,1092.03 708.039,1091.9 708.039,1091.74L708.039,1087.49C708.039,1083.94 710.928,1081.05 714.479,1081.05C716.925,1081.05 719.13,1082.41 720.233,1084.59C720.303,1084.73 720.248,1084.9 720.108,1084.97C719.966,1085.04 719.797,1084.99 719.727,1084.85C718.721,1082.85 716.71,1081.61 714.479,1081.61C711.24,1081.61 708.605,1084.25 708.605,1087.49L708.605,1091.46L716.97,1091.46C717.127,1091.46 717.253,1091.59 717.253,1091.74C717.253,1091.9 717.127,1092.03 716.97,1092.03Z" style="fill:white;fill-rule:nonzero;"/>
            </g>
            <g transform="matrix(85.55817,0,0,85.55817,-59599.225787,-90958.104349)">
                <path d="M723.134,1089.53L718.138,1089.53C717.981,1089.53 717.855,1089.4 717.855,1089.24C717.855,1089.09 717.981,1088.96 718.138,1088.96L723.134,1088.96C723.291,1088.96 723.417,1089.09 723.417,1089.24C723.417,1089.4 723.291,1089.53 723.134,1089.53Z" style="fill:rgb(35,91,42);fill-rule:nonzero;"/>
            </g>
            <g transform="matrix(85.55817,0,0,85.55817,-59599.225787,-90958.104349)">
                <path d="M720.636,1092.03C720.48,1092.03 720.353,1091.9 720.353,1091.74L720.353,1086.75C720.353,1086.59 720.48,1086.46 720.636,1086.46C720.792,1086.46 720.919,1086.59 720.919,1086.75L720.919,1091.74C720.919,1091.9 720.792,1092.03 720.636,1092.03Z" style="fill:rgb(35,91,42);fill-rule:nonzero;"/>
            </g>
        </g>
    </g>
</svg>
