<?xml version="1.0" encoding="UTF-8" standalone="no"?>
<!DOCTYPE svg PUBLIC "-//W3C//DTD SVG 1.1//EN" "http://www.w3.org/Graphics/SVG/1.1/DTD/svg11.dtd">
<svg width="64" height="64" viewBox="0 0 3199 3199" version="1.1" xmlns="http://www.w3.org/2000/svg" xmlns:xlink="http://www.w3.org/1999/xlink" xml:space="preserve" xmlns:serif="http://www.serif.com/" style="fill-rule:evenodd;clip-rule:evenodd;stroke-linejoin:round;stroke-miterlimit:2;">
    <rect id="Artboard1" x="0" y="0" width="3198.304" height="3198.304" style="fill:none;"/>
    <clipPath id="_clip1">
        <rect id="Artboard11" serif:id="Artboard1" x="0" y="0" width="3198.304" height="3198.304"/>
    </clipPath>
    <g clip-path="url(#_clip1)">
        <g transform="matrix(1.680704,0,0,1.680704,-1722.819233,-2177.097585)">
            <circle cx="1976.536" cy="2246.826" r="951.477" style="fill:rgb(99,214,113);"/>
        </g>
        <g transform="matrix(106.510473,0,0,106.510473,-63719.521055,-98981.638955)">
            <path d="M607.549,952.146C607.056,952.146 606.614,951.971 606.286,951.643L604.574,949.931C604.2,949.557 604.025,949.033 604.082,948.458C604.135,947.903 604.4,947.363 604.827,946.936L610.065,941.697C610.96,940.801 612.304,940.689 613.06,941.445L614.772,943.156C615.146,943.53 615.321,944.053 615.265,944.629C615.21,945.184 614.946,945.725 614.519,946.151C614.409,946.262 614.229,946.262 614.119,946.151C614.008,946.04 614.008,945.861 614.119,945.75C614.453,945.416 614.66,944.998 614.701,944.573C614.74,944.169 614.624,943.809 614.372,943.557L612.66,941.845C612.125,941.31 611.14,941.423 610.465,942.098L605.227,947.336C604.893,947.67 604.686,948.088 604.645,948.513C604.606,948.917 604.722,949.279 604.974,949.53L606.686,951.241C606.938,951.493 607.3,951.61 607.703,951.571C608.127,951.53 608.545,951.323 608.879,950.99L611.875,947.994C611.985,947.884 612.165,947.884 612.275,947.994C612.386,948.105 612.386,948.284 612.275,948.395L609.281,951.39C608.854,951.817 608.313,952.081 607.758,952.135L607.549,952.146Z" style="fill:white;fill-rule:nonzero;"/>
        </g>
        <g transform="matrix(106.510473,0,0,106.510473,-63719.521055,-98981.638955)">
            <path d="M614.266,947.709C613.789,947.709 613.335,947.545 613,947.208L611.288,945.496C610.914,945.123 610.739,944.6 610.795,944.024C610.849,943.469 611.114,942.928 611.541,942.501C611.651,942.391 611.831,942.391 611.941,942.501C612.052,942.613 612.052,942.791 611.941,942.903C611.607,943.237 611.401,943.655 611.359,944.079C611.32,944.483 611.437,944.844 611.689,945.096L613.4,946.808C613.935,947.343 614.919,947.23 615.594,946.555L620.833,941.317C621.167,940.983 621.374,940.565 621.415,940.14C621.454,939.736 621.337,939.374 621.085,939.122L619.374,937.41C618.838,936.875 617.854,936.99 617.18,937.663L613.896,940.948C613.786,941.059 613.606,941.059 613.496,940.948C613.384,940.837 613.384,940.657 613.496,940.547L616.779,937.263C617.674,936.367 619.019,936.254 619.774,937.01L621.486,938.722C621.86,939.096 622.035,939.618 621.979,940.195C621.924,940.75 621.66,941.29 621.234,941.717L615.995,946.955C615.498,947.453 614.862,947.709 614.266,947.709Z" style="fill:white;fill-rule:nonzero;"/>
        </g>
    </g>
</svg>
