<?xml version="1.0" encoding="UTF-8" standalone="no"?>
<!DOCTYPE svg PUBLIC "-//W3C//DTD SVG 1.1//EN" "http://www.w3.org/Graphics/SVG/1.1/DTD/svg11.dtd">
<svg width="64" height="64" viewBox="0 0 3199 3199" version="1.1" xmlns="http://www.w3.org/2000/svg" xmlns:xlink="http://www.w3.org/1999/xlink" xml:space="preserve" xmlns:serif="http://www.serif.com/" style="fill-rule:evenodd;clip-rule:evenodd;stroke-linejoin:round;stroke-miterlimit:2;">
    <rect id="Artboard1" x="0" y="0" width="3198.304" height="3198.304" style="fill:none;"/>
    <clipPath id="_clip1">
        <rect id="Artboard11" serif:id="Artboard1" x="0" y="0" width="3198.304" height="3198.304"/>
    </clipPath>
    <g clip-path="url(#_clip1)">
        <g transform="matrix(1.680704,0,0,1.680704,-1722.819233,-2177.097585)">
            <circle cx="1976.536" cy="2246.826" r="951.477" style="fill:rgb(99,214,113);"/>
        </g>
        <g transform="matrix(71.174966,71.174966,-71.174966,71.174966,28313.388902,-53896.88944)">
            <path d="M202.238,568.717C205.05,568.717 207.338,571.005 207.338,573.819C207.338,576.631 205.05,578.919 202.238,578.919C199.425,578.919 197.136,576.631 197.136,573.819C197.136,571.005 199.425,568.717 202.238,568.717ZM201.86,579.467L201.86,588.838C201.86,588.994 201.987,589.121 202.143,589.121C202.299,589.121 202.426,588.994 202.426,588.838L202.426,579.477C205.464,579.375 207.906,576.88 207.906,573.819C207.906,570.693 205.363,568.151 202.238,568.151C199.113,568.151 196.57,570.693 196.57,573.819C196.57,576.816 198.911,579.271 201.86,579.467Z" style="fill:none;fill-rule:nonzero;"/>
        </g>
        <g transform="matrix(71.174966,71.174966,-71.174966,71.174966,28313.388902,-53896.88944)">
            <path d="M203.087,578.163C203.245,578.163 203.372,578.036 203.372,577.88C203.372,577.724 203.245,577.597 203.087,577.597C201.399,577.597 200.109,576.885 199.254,575.483C198.603,574.413 198.458,573.322 198.457,573.311C198.437,573.156 198.296,573.045 198.14,573.065C197.985,573.084 197.875,573.226 197.894,573.381C197.9,573.429 198.544,578.163 203.087,578.163Z" style="fill:rgb(35,91,42);fill-rule:nonzero;"/>
        </g>
    </g>
</svg>
