<?xml version="1.0" encoding="UTF-8" standalone="no"?>
<!DOCTYPE svg PUBLIC "-//W3C//DTD SVG 1.1//EN" "http://www.w3.org/Graphics/SVG/1.1/DTD/svg11.dtd">
<svg width="64" height="64" viewBox="0 0 3199 3199" version="1.1" xmlns="http://www.w3.org/2000/svg" xmlns:xlink="http://www.w3.org/1999/xlink" xml:space="preserve" xmlns:serif="http://www.serif.com/" style="fill-rule:evenodd;clip-rule:evenodd;stroke-linejoin:round;stroke-miterlimit:2;">
    <rect id="Artboard1" x="0" y="0" width="3198.304" height="3198.304" style="fill:none;"/>
    <clipPath id="_clip1">
        <rect id="Artboard11" serif:id="Artboard1" x="0" y="0" width="3198.304" height="3198.304"/>
    </clipPath>
    <g clip-path="url(#_clip1)">
        <g transform="matrix(1.680704,0,0,1.680704,-1722.819233,-2177.097585)">
            <circle cx="1976.536" cy="2246.826" r="951.477" style="fill:rgb(99,214,113);"/>
        </g>
        <g transform="matrix(92.596677,0,0,92.596677,-40854.148996,-81665.848937)">
            <path d="M462.153,895.384L449.296,895.384C449.139,895.384 449.013,895.257 449.013,895.101C449.013,894.945 449.139,894.818 449.296,894.818L462.153,894.818C462.309,894.818 462.436,894.945 462.436,895.101C462.436,895.257 462.309,895.384 462.153,895.384Z" style="fill:white;fill-rule:nonzero;"/>
        </g>
        <g transform="matrix(92.596677,0,0,92.596677,-40854.148996,-81665.848937)">
            <path d="M462.153,900.508L449.296,900.508C449.139,900.508 449.013,900.381 449.013,900.225C449.013,900.069 449.139,899.942 449.296,899.942L462.153,899.942C462.309,899.942 462.436,900.069 462.436,900.225C462.436,900.381 462.309,900.508 462.153,900.508Z" style="fill:white;fill-rule:nonzero;"/>
        </g>
        <g transform="matrix(92.596677,0,0,92.596677,-40854.148996,-81665.848937)">
            <path d="M462.153,905.632L449.296,905.632C449.139,905.632 449.013,905.505 449.013,905.349C449.013,905.192 449.139,905.066 449.296,905.066L462.153,905.066C462.309,905.066 462.436,905.192 462.436,905.349C462.436,905.505 462.309,905.632 462.153,905.632Z" style="fill:white;fill-rule:nonzero;"/>
        </g>
        <g transform="matrix(92.596677,0,0,92.596677,-40854.148996,-81665.848937)">
            <path d="M465.607,900.508L464.863,900.508C464.707,900.508 464.58,900.381 464.58,900.225C464.58,900.069 464.707,899.942 464.863,899.942L465.607,899.942C465.763,899.942 465.89,900.069 465.89,900.225C465.89,900.381 465.763,900.508 465.607,900.508Z" style="fill:white;fill-rule:nonzero;"/>
        </g>
        <g transform="matrix(92.596677,0,0,92.596677,-40854.148996,-81665.848937)">
            <path d="M465.607,905.632L464.863,905.632C464.707,905.632 464.58,905.505 464.58,905.349C464.58,905.192 464.707,905.066 464.863,905.066L465.607,905.066C465.763,905.066 465.89,905.192 465.89,905.349C465.89,905.505 465.763,905.632 465.607,905.632Z" style="fill:white;fill-rule:nonzero;"/>
        </g>
        <g transform="matrix(92.596677,0,0,92.596677,-40854.148996,-81665.848937)">
            <path d="M465.351,895.575L465.157,895.498L464.407,894.797C464.292,894.69 464.287,894.511 464.394,894.397C464.501,894.281 464.68,894.277 464.794,894.383L465.345,894.899L468.469,891.793C468.581,891.683 468.76,891.684 468.871,891.795C468.981,891.906 468.98,892.085 468.87,892.196L465.55,895.493L465.351,895.575Z" style="fill:rgb(35,91,42);fill-rule:nonzero;"/>
        </g>
    </g>
</svg>
