<?xml version="1.0" encoding="UTF-8" standalone="no"?>
<!DOCTYPE svg PUBLIC "-//W3C//DTD SVG 1.1//EN" "http://www.w3.org/Graphics/SVG/1.1/DTD/svg11.dtd">
<svg width="64" height="64" viewBox="0 0 3199 3199" version="1.1" xmlns="http://www.w3.org/2000/svg" xmlns:xlink="http://www.w3.org/1999/xlink" xml:space="preserve" xmlns:serif="http://www.serif.com/" style="fill-rule:evenodd;clip-rule:evenodd;stroke-linejoin:round;stroke-miterlimit:2;">
    <rect id="Artboard1" x="0" y="0" width="3198.304" height="3198.304" style="fill:none;"/>
    <clipPath id="_clip1">
        <rect id="Artboard11" serif:id="Artboard1" x="0" y="0" width="3198.304" height="3198.304"/>
    </clipPath>
    <g clip-path="url(#_clip1)">
        <g transform="matrix(153.175481,0,0,153.175481,-60840.382506,-157081.455466)">
            <path d="M407.634,1026.07C402.191,1026.07 397.762,1030.5 397.762,1035.94C397.762,1041.39 402.191,1045.811 407.634,1045.811C413.077,1045.811 417.505,1041.39 417.505,1035.94C417.505,1030.5 413.077,1026.07 407.634,1026.07ZM407.634,1046.38C401.878,1046.38 397.196,1041.7 397.196,1035.94C397.196,1030.19 401.878,1025.5 407.634,1025.5C413.389,1025.5 418.072,1030.19 418.072,1035.94C418.072,1041.7 413.389,1046.38 407.634,1046.38Z" style="fill:rgb(217,122,69);fill-rule:nonzero;"/>
        </g>
        <g transform="matrix(153.175481,0,0,153.175481,-60840.382506,-157081.455466)">
            <path d="M404.375,1039.32L404.169,1039.23C404.062,1039.12 404.066,1038.94 404.18,1038.83L406.705,1036.431C406.818,1036.33 406.998,1036.33 407.105,1036.44C407.213,1036.561 407.208,1036.74 407.095,1036.84L404.57,1039.24L404.375,1039.32Z" style="fill:rgb(217,122,69);fill-rule:nonzero;"/>
        </g>
        <g transform="matrix(153.175481,0,0,153.175481,-60840.382506,-157081.455466)">
            <path d="M407.634,1035.22C407.477,1035.22 407.35,1035.1 407.35,1034.94L407.35,1028.421C407.35,1028.26 407.477,1028.14 407.634,1028.14C407.791,1028.14 407.917,1028.26 407.917,1028.421L407.917,1034.94C407.917,1035.1 407.791,1035.22 407.634,1035.22Z" style="fill:rgb(217,122,69);fill-rule:nonzero;"/>
        </g>
        <g transform="matrix(153.175481,0,0,153.175481,-60840.382506,-157081.455466)">
            <path d="M407.634,1035.37C407.322,1035.37 407.067,1035.63 407.067,1035.94C407.067,1036.25 407.322,1036.51 407.634,1036.51C407.947,1036.51 408.201,1036.25 408.201,1035.94C408.201,1035.63 407.947,1035.37 407.634,1035.37ZM407.634,1037.08C407.008,1037.08 406.5,1036.57 406.5,1035.94C406.5,1035.32 407.008,1034.811 407.634,1034.811C408.259,1034.811 408.767,1035.32 408.767,1035.94C408.767,1036.57 408.259,1037.08 407.634,1037.08Z" style="fill:rgb(217,122,69);fill-rule:nonzero;"/>
        </g>
    </g>
</svg>
