<?xml version="1.0" encoding="UTF-8" standalone="no"?>
<!DOCTYPE svg PUBLIC "-//W3C//DTD SVG 1.1//EN" "http://www.w3.org/Graphics/SVG/1.1/DTD/svg11.dtd">
<svg width="100%" height="100%" viewBox="0 0 3199 3199" version="1.1" xmlns="http://www.w3.org/2000/svg" xmlns:xlink="http://www.w3.org/1999/xlink" xml:space="preserve" xmlns:serif="http://www.serif.com/" style="fill-rule:evenodd;clip-rule:evenodd;stroke-linejoin:round;stroke-miterlimit:2;">
    <g>
        <clipPath id="_clip1">
            <rect x="0" y="0" width="3198.304" height="3198.304"/>
        </clipPath>
        <g clip-path="url(#_clip1)">
            <g transform="matrix(154.653149,0,0,154.653149,-132914.016843,-130355.368032)">
                <path d="M879.55,858.734L876.116,858.734L876.116,847.165C876.116,847.008 875.989,846.881 875.833,846.881L864.001,846.881L864.001,843.385L879.55,843.385L879.55,858.734ZM875.548,862.796L860,862.796L860,847.448L875.548,847.448L875.548,862.796ZM879.834,842.819L863.718,842.819C863.562,842.819 863.435,842.946 863.435,843.102L863.435,846.881L859.716,846.881C859.56,846.881 859.433,847.008 859.433,847.165L859.433,863.079C859.433,863.236 859.56,863.363 859.716,863.363L875.833,863.363C875.989,863.363 876.116,863.236 876.116,863.079L876.116,859.3L879.834,859.3C879.991,859.3 880.118,859.173 880.118,859.017L880.118,843.102C880.118,842.946 879.991,842.819 879.834,842.819Z" style="fill:rgb(35,91,42);fill-rule:nonzero;"/>
            </g>
            <g transform="matrix(154.653149,0,0,154.653149,-132914.016843,-130355.368032)">
                <path d="M872.259,854.685L867.591,854.685L867.591,850.301C867.591,850.144 867.464,850.018 867.307,850.018C867.151,850.018 867.024,850.144 867.024,850.301L867.024,854.685L862.356,854.685C862.199,854.685 862.072,854.812 862.072,854.968C862.072,855.124 862.199,855.251 862.356,855.251L867.024,855.251L867.024,859.634C867.024,859.79 867.151,859.917 867.307,859.917C867.464,859.917 867.591,859.79 867.591,859.634L867.591,855.251L872.259,855.251C872.417,855.251 872.543,855.124 872.543,854.968C872.543,854.812 872.417,854.685 872.259,854.685Z" style="fill:rgb(35,91,42);fill-rule:nonzero;"/>
            </g>
        </g>
    </g>
</svg>
